<?xml version="1.0" encoding="UTF-8" standalone="no"?><svg xmlns="http://www.w3.org/2000/svg" xmlns:xlink="http://www.w3.org/1999/xlink" contentScriptType="application/ecmascript" contentStyleType="text/css" height="558px" preserveAspectRatio="none" style="width:947px;height:558px;" version="1.1" viewBox="0 0 947 558" width="947px" zoomAndPan="magnify"><defs><filter height="300%" id="f17e9jf8ov3g8" width="300%" x="-1" y="-1"><feGaussianBlur result="blurOut" stdDeviation="2.0"/><feColorMatrix in="blurOut" result="blurOut2" type="matrix" values="0 0 0 0 0 0 0 0 0 0 0 0 0 0 0 0 0 0 .4 0"/><feOffset dx="4.0" dy="4.0" in="blurOut2" result="blurOut3"/><feBlend in="SourceGraphic" in2="blurOut3" mode="normal"/></filter></defs><g><rect fill="#FFFFFF" filter="url(#f17e9jf8ov3g8)" height="430.7266" style="stroke: #A80036; stroke-width: 1.0;" width="10" x="285" y="69.4297"/><rect fill="#FFFFFF" filter="url(#f17e9jf8ov3g8)" height="29.1328" style="stroke: #A80036; stroke-width: 1.0;" width="10" x="495" y="98.5625"/><rect fill="#FFFFFF" filter="url(#f17e9jf8ov3g8)" height="29.1328" style="stroke: #A80036; stroke-width: 1.0;" width="10" x="573" y="156.8281"/><rect fill="#FFFFFF" filter="url(#f17e9jf8ov3g8)" height="197.6641" style="stroke: #A80036; stroke-width: 1.0;" width="10" x="646.5" y="215.0938"/><rect fill="#FFFFFF" filter="url(#f17e9jf8ov3g8)" height="40.1328" style="stroke: #A80036; stroke-width: 1.0;" width="10" x="651.5" y="252.2266"/><rect fill="#FFFFFF" filter="url(#f17e9jf8ov3g8)" height="40.1328" style="stroke: #A80036; stroke-width: 1.0;" width="10" x="651.5" y="336.4922"/><rect fill="#FFFFFF" filter="url(#f17e9jf8ov3g8)" height="29.1328" style="stroke: #A80036; stroke-width: 1.0;" width="10" x="890.5" y="441.8906"/><line style="stroke: #A80036; stroke-width: 1.0; stroke-dasharray: 5.0,5.0;" x1="59" x2="59" y1="38.2969" y2="518.1563"/><line style="stroke: #A80036; stroke-width: 1.0; stroke-dasharray: 5.0,5.0;" x1="289.5" x2="289.5" y1="38.2969" y2="518.1563"/><line style="stroke: #A80036; stroke-width: 1.0; stroke-dasharray: 5.0,5.0;" x1="500" x2="500" y1="38.2969" y2="518.1563"/><line style="stroke: #A80036; stroke-width: 1.0; stroke-dasharray: 5.0,5.0;" x1="578" x2="578" y1="38.2969" y2="518.1563"/><line style="stroke: #A80036; stroke-width: 1.0; stroke-dasharray: 5.0,5.0;" x1="651" x2="651" y1="38.2969" y2="518.1563"/><line style="stroke: #A80036; stroke-width: 1.0; stroke-dasharray: 5.0,5.0;" x1="895.5" x2="895.5" y1="38.2969" y2="518.1563"/><rect fill="#FEFECE" filter="url(#f17e9jf8ov3g8)" height="30.2969" style="stroke: #A80036; stroke-width: 1.5;" width="98" x="8" y="3"/><text fill="#000000" font-family="sans-serif" font-size="14" lengthAdjust="spacingAndGlyphs" textLength="84" x="15" y="22.9951">hm:酒店经理</text><rect fill="#FEFECE" filter="url(#f17e9jf8ov3g8)" height="30.2969" style="stroke: #A80036; stroke-width: 1.5;" width="98" x="8" y="517.1563"/><text fill="#000000" font-family="sans-serif" font-size="14" lengthAdjust="spacingAndGlyphs" textLength="84" x="15" y="537.1514">hm:酒店经理</text><rect fill="#FEFECE" filter="url(#f17e9jf8ov3g8)" height="30.2969" style="stroke: #A80036; stroke-width: 1.5;" width="103" x="236.5" y="3"/><text fill="#000000" font-family="sans-serif" font-size="14" lengthAdjust="spacingAndGlyphs" textLength="89" x="243.5" y="22.9951">rc:报表控制器</text><rect fill="#FEFECE" filter="url(#f17e9jf8ov3g8)" height="30.2969" style="stroke: #A80036; stroke-width: 1.5;" width="103" x="236.5" y="517.1563"/><text fill="#000000" font-family="sans-serif" font-size="14" lengthAdjust="spacingAndGlyphs" textLength="89" x="243.5" y="537.1514">rc:报表控制器</text><rect fill="#FEFECE" filter="url(#f17e9jf8ov3g8)" height="30.2969" style="stroke: #A80036; stroke-width: 1.5;" width="62" x="467" y="3"/><text fill="#000000" font-family="sans-serif" font-size="14" lengthAdjust="spacingAndGlyphs" textLength="48" x="474" y="22.9951">dr:日志</text><rect fill="#FEFECE" filter="url(#f17e9jf8ov3g8)" height="30.2969" style="stroke: #A80036; stroke-width: 1.5;" width="62" x="467" y="517.1563"/><text fill="#000000" font-family="sans-serif" font-size="14" lengthAdjust="spacingAndGlyphs" textLength="48" x="474" y="537.1514">dr:日志</text><rect fill="#FEFECE" filter="url(#f17e9jf8ov3g8)" height="30.2969" style="stroke: #A80036; stroke-width: 1.5;" width="66" x="543" y="3"/><text fill="#000000" font-family="sans-serif" font-size="14" lengthAdjust="spacingAndGlyphs" textLength="52" x="550" y="22.9951">db:详单</text><rect fill="#FEFECE" filter="url(#f17e9jf8ov3g8)" height="30.2969" style="stroke: #A80036; stroke-width: 1.5;" width="66" x="543" y="517.1563"/><text fill="#000000" font-family="sans-serif" font-size="14" lengthAdjust="spacingAndGlyphs" textLength="52" x="550" y="537.1514">db:详单</text><rect fill="#FEFECE" filter="url(#f17e9jf8ov3g8)" height="30.2969" style="stroke: #A80036; stroke-width: 1.5;" width="53" x="623" y="3"/><text fill="#000000" font-family="sans-serif" font-size="14" lengthAdjust="spacingAndGlyphs" textLength="39" x="630" y="22.9951">r:报表</text><rect fill="#FEFECE" filter="url(#f17e9jf8ov3g8)" height="30.2969" style="stroke: #A80036; stroke-width: 1.5;" width="53" x="623" y="517.1563"/><text fill="#000000" font-family="sans-serif" font-size="14" lengthAdjust="spacingAndGlyphs" textLength="39" x="630" y="537.1514">r:报表</text><rect fill="#FEFECE" filter="url(#f17e9jf8ov3g8)" height="30.2969" style="stroke: #A80036; stroke-width: 1.5;" width="86" x="850.5" y="3"/><text fill="#000000" font-family="sans-serif" font-size="14" lengthAdjust="spacingAndGlyphs" textLength="72" x="857.5" y="22.9951">mw:主窗口</text><rect fill="#FEFECE" filter="url(#f17e9jf8ov3g8)" height="30.2969" style="stroke: #A80036; stroke-width: 1.5;" width="86" x="850.5" y="517.1563"/><text fill="#000000" font-family="sans-serif" font-size="14" lengthAdjust="spacingAndGlyphs" textLength="72" x="857.5" y="537.1514">mw:主窗口</text><rect fill="#FFFFFF" filter="url(#f17e9jf8ov3g8)" height="430.7266" style="stroke: #A80036; stroke-width: 1.0;" width="10" x="285" y="69.4297"/><rect fill="#FFFFFF" filter="url(#f17e9jf8ov3g8)" height="29.1328" style="stroke: #A80036; stroke-width: 1.0;" width="10" x="495" y="98.5625"/><rect fill="#FFFFFF" filter="url(#f17e9jf8ov3g8)" height="29.1328" style="stroke: #A80036; stroke-width: 1.0;" width="10" x="573" y="156.8281"/><rect fill="#FFFFFF" filter="url(#f17e9jf8ov3g8)" height="197.6641" style="stroke: #A80036; stroke-width: 1.0;" width="10" x="646.5" y="215.0938"/><rect fill="#FFFFFF" filter="url(#f17e9jf8ov3g8)" height="40.1328" style="stroke: #A80036; stroke-width: 1.0;" width="10" x="651.5" y="252.2266"/><rect fill="#FFFFFF" filter="url(#f17e9jf8ov3g8)" height="40.1328" style="stroke: #A80036; stroke-width: 1.0;" width="10" x="651.5" y="336.4922"/><rect fill="#FFFFFF" filter="url(#f17e9jf8ov3g8)" height="29.1328" style="stroke: #A80036; stroke-width: 1.0;" width="10" x="890.5" y="441.8906"/><polygon fill="#A80036" points="273,65.4297,283,69.4297,273,73.4297,277,69.4297" style="stroke: #A80036; stroke-width: 1.0;"/><line style="stroke: #A80036; stroke-width: 1.0;" x1="59" x2="279" y1="69.4297" y2="69.4297"/><text fill="#000000" font-family="sans-serif" font-size="13" lengthAdjust="spacingAndGlyphs" textLength="202" x="66" y="64.3638">1:SetReportOption(type,period)</text><polygon fill="#A80036" points="483,94.5625,493,98.5625,483,102.5625,487,98.5625" style="stroke: #A80036; stroke-width: 1.0;"/><line style="stroke: #A80036; stroke-width: 1.0;" x1="295" x2="489" y1="98.5625" y2="98.5625"/><text fill="#000000" font-family="sans-serif" font-size="13" lengthAdjust="spacingAndGlyphs" textLength="181" x="302" y="93.4966">1.1:log=getLog(type,period)</text><line style="stroke: #A80036; stroke-width: 1.0;" x1="295" x2="305" y1="127.6953" y2="123.6953"/><line style="stroke: #A80036; stroke-width: 1.0;" x1="295" x2="305" y1="127.6953" y2="131.6953"/><line style="stroke: #A80036; stroke-width: 1.0; stroke-dasharray: 2.0,2.0;" x1="295" x2="499" y1="127.6953" y2="127.6953"/><text fill="#000000" font-family="sans-serif" font-size="13" lengthAdjust="spacingAndGlyphs" textLength="152" x="312" y="122.6294">1.2:getLog(type,period)</text><polygon fill="#A80036" points="561,152.8281,571,156.8281,561,160.8281,565,156.8281" style="stroke: #A80036; stroke-width: 1.0;"/><line style="stroke: #A80036; stroke-width: 1.0;" x1="295" x2="567" y1="156.8281" y2="156.8281"/><text fill="#000000" font-family="sans-serif" font-size="13" lengthAdjust="spacingAndGlyphs" textLength="173" x="302" y="151.7622">1.3:bill=getBill(type,period)</text><line style="stroke: #A80036; stroke-width: 1.0;" x1="295" x2="305" y1="185.9609" y2="181.9609"/><line style="stroke: #A80036; stroke-width: 1.0;" x1="295" x2="305" y1="185.9609" y2="189.9609"/><line style="stroke: #A80036; stroke-width: 1.0; stroke-dasharray: 2.0,2.0;" x1="295" x2="577" y1="185.9609" y2="185.9609"/><text fill="#000000" font-family="sans-serif" font-size="13" lengthAdjust="spacingAndGlyphs" textLength="146" x="312" y="180.895">1.4:getBill(type,period)</text><polygon fill="#A80036" points="634.5,211.0938,644.5,215.0938,634.5,219.0938,638.5,215.0938" style="stroke: #A80036; stroke-width: 1.0;"/><line style="stroke: #A80036; stroke-width: 1.0;" x1="295" x2="640.5" y1="215.0938" y2="215.0938"/><text fill="#000000" font-family="sans-serif" font-size="13" lengthAdjust="spacingAndGlyphs" textLength="277" x="302" y="210.0278">1.5:report=MakeReport(log,bill,type,period)</text><line style="stroke: #A80036; stroke-width: 1.0;" x1="656.5" x2="703.5" y1="239.2266" y2="239.2266"/><line style="stroke: #A80036; stroke-width: 1.0;" x1="703.5" x2="703.5" y1="239.2266" y2="252.2266"/><line style="stroke: #A80036; stroke-width: 1.0;" x1="662.5" x2="703.5" y1="252.2266" y2="252.2266"/><polygon fill="#A80036" points="672.5,248.2266,662.5,252.2266,672.5,256.2266,668.5,252.2266" style="stroke: #A80036; stroke-width: 1.0;"/><text fill="#000000" font-family="sans-serif" font-size="13" lengthAdjust="spacingAndGlyphs" textLength="215" x="668.5" y="234.1606">1.5.1:changeAttri(bill,type,period)</text><line style="stroke: #A80036; stroke-width: 1.0; stroke-dasharray: 2.0,2.0;" x1="661.5" x2="703.5" y1="291.3594" y2="291.3594"/><line style="stroke: #A80036; stroke-width: 1.0; stroke-dasharray: 2.0,2.0;" x1="703.5" x2="703.5" y1="291.3594" y2="304.3594"/><line style="stroke: #A80036; stroke-width: 1.0; stroke-dasharray: 2.0,2.0;" x1="656.5" x2="703.5" y1="304.3594" y2="304.3594"/><line style="stroke: #A80036; stroke-width: 1.0;" x1="656.5" x2="666.5" y1="304.3594" y2="300.3594"/><line style="stroke: #A80036; stroke-width: 1.0;" x1="656.5" x2="666.5" y1="304.3594" y2="308.3594"/><text fill="#000000" font-family="sans-serif" font-size="13" lengthAdjust="spacingAndGlyphs" textLength="215" x="668.5" y="286.2935">1.5.2:changeAttri(bill,type,period)</text><line style="stroke: #A80036; stroke-width: 1.0;" x1="656.5" x2="703.5" y1="323.4922" y2="323.4922"/><line style="stroke: #A80036; stroke-width: 1.0;" x1="703.5" x2="703.5" y1="323.4922" y2="336.4922"/><line style="stroke: #A80036; stroke-width: 1.0;" x1="662.5" x2="703.5" y1="336.4922" y2="336.4922"/><polygon fill="#A80036" points="672.5,332.4922,662.5,336.4922,672.5,340.4922,668.5,336.4922" style="stroke: #A80036; stroke-width: 1.0;"/><text fill="#000000" font-family="sans-serif" font-size="13" lengthAdjust="spacingAndGlyphs" textLength="137" x="668.5" y="318.4263">1.5.3:Count(log,type)</text><line style="stroke: #A80036; stroke-width: 1.0; stroke-dasharray: 2.0,2.0;" x1="661.5" x2="703.5" y1="375.625" y2="375.625"/><line style="stroke: #A80036; stroke-width: 1.0; stroke-dasharray: 2.0,2.0;" x1="703.5" x2="703.5" y1="375.625" y2="388.625"/><line style="stroke: #A80036; stroke-width: 1.0; stroke-dasharray: 2.0,2.0;" x1="656.5" x2="703.5" y1="388.625" y2="388.625"/><line style="stroke: #A80036; stroke-width: 1.0;" x1="656.5" x2="666.5" y1="388.625" y2="384.625"/><line style="stroke: #A80036; stroke-width: 1.0;" x1="656.5" x2="666.5" y1="388.625" y2="392.625"/><text fill="#000000" font-family="sans-serif" font-size="13" lengthAdjust="spacingAndGlyphs" textLength="137" x="668.5" y="370.5591">1.5.4:Count(log,type)</text><line style="stroke: #A80036; stroke-width: 1.0;" x1="295" x2="305" y1="412.7578" y2="408.7578"/><line style="stroke: #A80036; stroke-width: 1.0;" x1="295" x2="305" y1="412.7578" y2="416.7578"/><line style="stroke: #A80036; stroke-width: 1.0; stroke-dasharray: 2.0,2.0;" x1="295" x2="650.5" y1="412.7578" y2="412.7578"/><text fill="#000000" font-family="sans-serif" font-size="13" lengthAdjust="spacingAndGlyphs" textLength="228" x="312" y="407.6919">1.6:MakeReport(log,bill,type,period)</text><polygon fill="#A80036" points="878.5,437.8906,888.5,441.8906,878.5,445.8906,882.5,441.8906" style="stroke: #A80036; stroke-width: 1.0;"/><line style="stroke: #A80036; stroke-width: 1.0;" x1="295" x2="884.5" y1="441.8906" y2="441.8906"/><text fill="#000000" font-family="sans-serif" font-size="13" lengthAdjust="spacingAndGlyphs" textLength="164" x="302" y="436.8247">1.7:DisplayReport(report)</text><line style="stroke: #A80036; stroke-width: 1.0;" x1="295" x2="305" y1="471.0234" y2="467.0234"/><line style="stroke: #A80036; stroke-width: 1.0;" x1="295" x2="305" y1="471.0234" y2="475.0234"/><line style="stroke: #A80036; stroke-width: 1.0; stroke-dasharray: 2.0,2.0;" x1="295" x2="894.5" y1="471.0234" y2="471.0234"/><text fill="#000000" font-family="sans-serif" font-size="13" lengthAdjust="spacingAndGlyphs" textLength="164" x="312" y="465.9575">1.8:DisplayReport(report)</text><line style="stroke: #A80036; stroke-width: 1.0;" x1="59" x2="69" y1="500.1563" y2="496.1563"/><line style="stroke: #A80036; stroke-width: 1.0;" x1="59" x2="69" y1="500.1563" y2="504.1563"/><line style="stroke: #A80036; stroke-width: 1.0; stroke-dasharray: 2.0,2.0;" x1="59" x2="289" y1="500.1563" y2="500.1563"/><text fill="#000000" font-family="sans-serif" font-size="13" lengthAdjust="spacingAndGlyphs" textLength="202" x="76" y="495.0903">2:SetReportOption(type,period)</text><!--MD5=[175ca93480be6191ba3aa80f7cc20b44]
@startuml
"hm:酒店经理" -> "rc:报表控制器" : 1:SetReportOption(type,period)
activate "rc:报表控制器"

"rc:报表控制器" -> "dr:日志" : 1.1:log=getLog(type,period)
activate "dr:日志"

"dr:日志" - ->> "rc:报表控制器" : 1.2:getLog(type,period)
deactivate "dr:日志"

"rc:报表控制器" -> "db:详单" : 1.3:bill=getBill(type,period)
activate "db:详单"

"db:详单" - ->> "rc:报表控制器" : 1.4:getBill(type,period)
deactivate "db:详单"

"rc:报表控制器" -> "r:报表" : 1.5:report=MakeReport(log,bill,type,period)
activate "r:报表"

"r:报表" -> "r:报表" : 1.5.1:changeAttri(bill,type,period)
activate "r:报表"

"r:报表" - ->> "r:报表" : 1.5.2:changeAttri(bill,type,period)
deactivate "r:报表"

"r:报表" -> "r:报表" : 1.5.3:Count(log,type)
activate "r:报表"

"r:报表" - ->> "r:报表" : 1.5.4:Count(log,type)
deactivate "r:报表"

"r:报表" - ->> "rc:报表控制器" : 1.6:MakeReport(log,bill,type,period)
deactivate "r:报表"

"rc:报表控制器" -> "mw:主窗口" : 1.7:DisplayReport(report)
activate "mw:主窗口"

"mw:主窗口" - ->> "rc:报表控制器" : 1.8:DisplayReport(report)
deactivate "mw:主窗口"

"rc:报表控制器" - ->> "hm:酒店经理" : 2:SetReportOption(type,period)
deactivate "rc:报表控制器"
@enduml

PlantUML version 1.2020.10(Sun May 17 09:35:57 UTC 2020)
(GPL source distribution)
Java Runtime: Java(TM) SE Runtime Environment
JVM: Java HotSpot(TM) 64-Bit Server VM
Java Version: 14.0.1+7
Operating System: Linux
Default Encoding: UTF-8
Language: en
Country: US
--></g></svg>