<svg xmlns="http://www.w3.org/2000/svg" id="SvgjsSvg1446" width="533.74" height="759" version="1.1" xmlns:xlink="http://www.w3.org/1999/xlink" xmlns:svgjs="http://svgjs.com/svgjs"><defs id="SvgjsDefs1447"><marker id="SvgjsMarker1494" viewBox="0 0 16 12" refX="16" refY="6" markerUnits="userSpaceOnUse" markerWidth="16" markerHeight="12" orient="auto"><path id="SvgjsPath1495" fill="#323232" stroke="#323232" stroke-width="2" d="M 0 2 L 14 6 L 0 11 L 0 2" /></marker><marker id="SvgjsMarker1510" viewBox="0 0 16 12" refX="16" refY="6" markerUnits="userSpaceOnUse" markerWidth="16" markerHeight="12" orient="auto"><path id="SvgjsPath1511" fill="#323232" stroke="#323232" stroke-width="2" d="M 0 2 L 14 6 L 0 11 L 0 2" /></marker><marker id="SvgjsMarker1514" viewBox="0 0 16 12" refX="16" refY="6" markerUnits="userSpaceOnUse" markerWidth="16" markerHeight="12" orient="auto"><path id="SvgjsPath1515" fill="#323232" stroke="#323232" stroke-width="2" d="M 0 2 L 14 6 L 0 11 L 0 2" /></marker><marker id="SvgjsMarker1530" viewBox="0 0 16 12" refX="16" refY="6" markerUnits="userSpaceOnUse" markerWidth="16" markerHeight="12" orient="auto"><path id="SvgjsPath1531" fill="#323232" stroke="#323232" stroke-width="2" d="M 0 2 L 14 6 L 0 11 L 0 2" /></marker><marker id="SvgjsMarker1552" viewBox="0 0 16 12" refX="16" refY="6" markerUnits="userSpaceOnUse" markerWidth="16" markerHeight="12" orient="auto"><path id="SvgjsPath1553" fill="#323232" stroke="#323232" stroke-width="2" d="M 0 2 L 14 6 L 0 11 L 0 2" /></marker><marker id="SvgjsMarker1556" viewBox="0 0 16 12" refX="16" refY="6" markerUnits="userSpaceOnUse" markerWidth="16" markerHeight="12" orient="auto"><path id="SvgjsPath1557" fill="#323232" stroke="#323232" stroke-width="2" d="M 0 2 L 14 6 L 0 11 L 0 2" /></marker><marker id="SvgjsMarker1584" viewBox="0 0 16 12" refX="16" refY="6" markerUnits="userSpaceOnUse" markerWidth="16" markerHeight="12" orient="auto"><path id="SvgjsPath1585" fill="#323232" stroke="#323232" stroke-width="2" d="M 0 2 L 14 6 L 0 11 L 0 2" /></marker><marker id="SvgjsMarker1588" viewBox="0 0 16 12" refX="16" refY="6" markerUnits="userSpaceOnUse" markerWidth="16" markerHeight="12" orient="auto"><path id="SvgjsPath1589" fill="#323232" stroke="#323232" stroke-width="2" d="M 0 2 L 14 6 L 0 11 L 0 2" /></marker><marker id="SvgjsMarker1616" viewBox="0 0 16 12" refX="16" refY="6" markerUnits="userSpaceOnUse" markerWidth="16" markerHeight="12" orient="auto"><path id="SvgjsPath1617" fill="#323232" stroke="#323232" stroke-width="2" d="M 0 2 L 14 6 L 0 11 L 0 2" /></marker><marker id="SvgjsMarker1620" viewBox="0 0 16 12" refX="16" refY="6" markerUnits="userSpaceOnUse" markerWidth="16" markerHeight="12" orient="auto"><path id="SvgjsPath1621" fill="#323232" stroke="#323232" stroke-width="2" d="M 0 2 L 14 6 L 0 11 L 0 2" /></marker><marker id="SvgjsMarker1648" viewBox="0 0 16 12" refX="16" refY="6" markerUnits="userSpaceOnUse" markerWidth="16" markerHeight="12" orient="auto"><path id="SvgjsPath1649" fill="#323232" stroke="#323232" stroke-width="2" d="M 0 2 L 14 6 L 0 11 L 0 2" /></marker><marker id="SvgjsMarker1652" viewBox="0 0 16 12" refX="16" refY="6" markerUnits="userSpaceOnUse" markerWidth="16" markerHeight="12" orient="auto"><path id="SvgjsPath1653" fill="#323232" stroke="#323232" stroke-width="2" d="M 0 2 L 14 6 L 0 11 L 0 2" /></marker></defs><g id="SvgjsG1448" transform="translate(62.699 484)"><path id="SvgjsPath1449" fill="#ffffff" fill-opacity="1" stroke="#323232" stroke-width="2" d="M 0 4 Q 0 0 4 0 L 386.68 0 Q 390.68 0 390.68 4 L 390.68 109.964 Q 390.68 113.964 386.68 113.964 L 4 113.964 Q 0 113.964 0 109.964 Z" /><path id="SvgjsPath1450" fill="#ffffff" fill-opacity="1" stroke="#323232" stroke-width="2" d="M 0 25 L 117.204 25 L 125.204 17 L 125.204 0" /><path id="SvgjsPath1451" fill="none" stroke="none" d="M 0 0 L 390.68 0 L 390.68 113.964 L 0 113.964 Z" /><g id="SvgjsG1452"><text id="SvgjsText1453" font-family="微软雅黑" font-size="13px" font-style="" font-weight="400" fill="#323232" text-anchor="middle" transform="rotate(0)" y="59.5321" width="0" align="middle" anchor="middle" family="微软雅黑" size="13px" weight="400"><tspan id="SvgjsTspan1454" x="195.5" dy="16"><tspan id="SvgjsTspan1455" style="text-decoration:;"> </tspan></tspan></text></g><g id="SvgjsG1456"><text id="SvgjsText1457" font-family="微软雅黑" font-size="13px" font-style="" font-weight="400" fill="#323232" text-anchor="middle" transform="rotate(0)" y="2.55" width="26" align="middle" anchor="middle" family="微软雅黑" size="13px" weight="400"><tspan id="SvgjsTspan1458" x="64" dy="16"><tspan id="SvgjsTspan1459" style="text-decoration:;">可选</tspan></tspan></text></g></g><g id="SvgjsG1460" transform="translate(25 25)"><path id="SvgjsPath1461" fill="none" stroke="#323232" stroke-dasharray="3px, 4px" stroke-width="2" d="M 73 30 L 73 709" /><path id="SvgjsPath1462" fill="#ffffff" fill-opacity="1" stroke="#323232" stroke-width="2" d="M 0 0 L 146 0 L 146 30 L 0 30 Z" /><g id="SvgjsG1463"><text id="SvgjsText1464" font-family="微软雅黑" font-size="13px" font-style="" font-weight="400" fill="#323232" text-anchor="middle" transform="rotate(0)" y="5.05" width="52" align="middle" anchor="middle" family="微软雅黑" size="13px" weight="400"><tspan id="SvgjsTspan1465" x="73" dy="16"><tspan id="SvgjsTspan1466" style="text-decoration:;">酒店经理</tspan></tspan></text></g></g><g id="SvgjsG1467" transform="translate(330.744 31.5804)"><path id="SvgjsPath1468" fill="none" stroke="#323232" stroke-dasharray="3px, 4px" stroke-width="2" d="M 89.0065 30 L 89.0065 702.42" /><path id="SvgjsPath1469" fill="#ffffff" fill-opacity="1" stroke="#323232" stroke-width="2" d="M 0 0 L 178.013 0 L 178.013 30 L 0 30 Z" /><g id="SvgjsG1470"><text id="SvgjsText1471" font-family="微软雅黑" font-size="13px" font-style="" font-weight="400" fill="#323232" text-anchor="middle" transform="rotate(0)" y="5.05" width="91" align="middle" anchor="middle" family="微软雅黑" size="13px" weight="400"><tspan id="SvgjsTspan1472" x="89.5" dy="16"><tspan id="SvgjsTspan1473" style="text-decoration:;">分布式温控系统</tspan></tspan></text></g></g><g id="SvgjsG1474" transform="translate(108.819 261.339)"><path id="SvgjsPath1475" fill="none" stroke="none" d="M 0 0 L 303.197 0 L 303.197 51.3393 L 0 51.3393 Z" /><g id="SvgjsG1476"><text id="SvgjsText1477" font-family="微软雅黑" font-size="13px" font-style="" font-weight="400" fill="#323232" text-anchor="middle" transform="rotate(0)" y="15.7196" width="92" align="middle" anchor="middle" family="微软雅黑" size="13px" weight="400"><tspan id="SvgjsTspan1478" x="152" dy="16"><tspan id="SvgjsTspan1479" style="text-decoration:;">5:ViewReport()</tspan></tspan></text></g></g><g id="SvgjsG1480" transform="translate(108.819 334.286)"><path id="SvgjsPath1481" fill="none" stroke="none" d="M 0 0 L 303.197 0 L 303.197 25.5893 L 0 25.5893 Z" /><g id="SvgjsG1482"><text id="SvgjsText1483" font-family="微软雅黑" font-size="13px" font-style="" font-weight="400" fill="#323232" text-anchor="middle" transform="rotate(0)" y="2.8446" width="72" align="middle" anchor="middle" family="微软雅黑" size="13px" weight="400"><tspan id="SvgjsTspan1484" x="152" dy="16"><tspan id="SvgjsTspan1485" style="text-decoration:;">6:ReportNo</tspan></tspan></text></g></g><g id="SvgjsG1486" transform="translate(115.879 320)"><path id="SvgjsPath1487" fill="none" stroke="none" d="M 0 0 L 296.638 0 L 296.638 22 L 0 22 Z" /><g id="SvgjsG1488"><text id="SvgjsText1489" font-family="微软雅黑" font-size="13px" font-style="" font-weight="400" fill="#323232" text-anchor="middle" transform="rotate(0)" y="1.05" width="64" align="middle" anchor="middle" family="微软雅黑" size="13px" weight="400"><tspan id="SvgjsTspan1490" x="148.5" dy="16"><tspan id="SvgjsTspan1491" style="text-decoration:;">《return》</tspan></tspan></text></g></g><g id="SvgjsG1492"><path id="SvgjsPath1493" fill="none" marker-end="url(&quot;#SvgjsMarker1494&quot;)" stroke="#323232" stroke-dasharray="8px, 5px" stroke-width="2" d="M 407.751 357.821 L 103.379 357.821" /></g><g id="SvgjsG1496" transform="translate(112.599 388.411)"><path id="SvgjsPath1497" fill="none" stroke="none" d="M 0 0 L 303.197 0 L 303.197 19.2679 L 0 19.2679 Z" /><g id="SvgjsG1498"><text id="SvgjsText1499" font-family="微软雅黑" font-size="13px" font-style="" font-weight="400" fill="#323232" text-anchor="middle" transform="rotate(0)" y="-0.316" width="196" align="middle" anchor="middle" family="微软雅黑" size="13px" weight="400"><tspan id="SvgjsTspan1500" x="152" dy="16"><tspan id="SvgjsTspan1501" style="text-decoration:;">7:SetReportOption(type,period)</tspan></tspan></text></g></g><g id="SvgjsG1502" transform="translate(114.864 427.143)"><path id="SvgjsPath1503" fill="none" stroke="none" d="M 0 0 L 298.667 0 L 298.667 20 L 0 20 Z" /><g id="SvgjsG1504"><text id="SvgjsText1505" font-family="微软雅黑" font-size="13px" font-style="" font-weight="400" fill="#323232" text-anchor="middle" transform="rotate(0)" y="0.05" width="64" align="middle" anchor="middle" family="微软雅黑" size="13px" weight="400"><tspan id="SvgjsTspan1506" x="149.5" dy="16"><tspan id="SvgjsTspan1507" style="text-decoration:;">《return》</tspan></tspan></text></g></g><g id="SvgjsG1508"><path id="SvgjsPath1509" fill="none" marker-end="url(&quot;#SvgjsMarker1510&quot;)" stroke="#323232" stroke-dasharray="8px, 5px" stroke-width="2" d="M 418.751 461.357 L 100.084 461.357" /></g><g id="SvgjsG1512"><path id="SvgjsPath1513" fill="none" marker-end="url(&quot;#SvgjsMarker1514&quot;)" stroke="#323232" stroke-width="2" d="M 99.5372 409.161 L 409.843 407.882" /></g><g id="SvgjsG1516" transform="translate(112.599 441)"><path id="SvgjsPath1517" fill="none" stroke="none" d="M 0 0 L 295.638 0 L 295.638 20 L 0 20 Z" /><g id="SvgjsG1518"><text id="SvgjsText1519" font-family="微软雅黑" font-size="13px" font-style="" font-weight="400" fill="#323232" text-anchor="middle" transform="rotate(0)" y="0.05" width="30" align="middle" anchor="middle" family="微软雅黑" size="13px" weight="400"><tspan id="SvgjsTspan1520" x="148" dy="16"><tspan id="SvgjsTspan1521" style="text-decoration:;">8:OK</tspan></tspan></text></g></g><g id="SvgjsG1522" transform="translate(409.751 295.679)"><path id="SvgjsPath1523" fill="#ffffff" fill-opacity="1" stroke="#323232" stroke-width="2" d="M 0 0 L 20 0 L 20 61.3214 L 0 61.3214 Z" /><g id="SvgjsG1524"><text id="SvgjsText1525" font-family="微软雅黑" font-size="13px" font-style="" font-weight="400" fill="#323232" text-anchor="middle" transform="rotate(0)" y="20.7107" width="0" align="middle" anchor="middle" family="微软雅黑" size="13px" weight="400"><tspan id="SvgjsTspan1526" x="10" dy="16"><tspan id="SvgjsTspan1527" style="text-decoration:;"> </tspan></tspan></text></g></g><g id="SvgjsG1528"><path id="SvgjsPath1529" fill="none" marker-end="url(&quot;#SvgjsMarker1530&quot;)" stroke="#323232" stroke-width="2" d="M 97.9903 297.732 L 410.328 295.876" /></g><g id="SvgjsG1532" transform="translate(409.751 407.679)"><path id="SvgjsPath1533" fill="#ffffff" fill-opacity="1" stroke="#323232" stroke-width="2" d="M 0 0 L 20 0 L 20 53.3214 L 0 53.3214 Z" /><g id="SvgjsG1534"><text id="SvgjsText1535" font-family="微软雅黑" font-size="13px" font-style="" font-weight="400" fill="#323232" text-anchor="middle" transform="rotate(0)" y="16.7107" width="0" align="middle" anchor="middle" family="微软雅黑" size="13px" weight="400"><tspan id="SvgjsTspan1536" x="10" dy="16"><tspan id="SvgjsTspan1537" style="text-decoration:;"> </tspan></tspan></text></g></g><g id="SvgjsG1538" transform="translate(112.599 513.054)"><path id="SvgjsPath1539" fill="none" stroke="none" d="M 0 0 L 303.197 0 L 303.197 19.2679 L 0 19.2679 Z" /><g id="SvgjsG1540"><text id="SvgjsText1541" font-family="微软雅黑" font-size="13px" font-style="" font-weight="400" fill="#323232" text-anchor="middle" transform="rotate(0)" y="-0.316" width="152" align="middle" anchor="middle" family="微软雅黑" size="13px" weight="400"><tspan id="SvgjsTspan1542" x="152" dy="16"><tspan id="SvgjsTspan1543" style="text-decoration:;">1:PrintReport(ReportNo)</tspan></tspan></text></g></g><g id="SvgjsG1544" transform="translate(114.864 551.786)"><path id="SvgjsPath1545" fill="none" stroke="none" d="M 0 0 L 298.667 0 L 298.667 20 L 0 20 Z" /><g id="SvgjsG1546"><text id="SvgjsText1547" font-family="微软雅黑" font-size="13px" font-style="" font-weight="400" fill="#323232" text-anchor="middle" transform="rotate(0)" y="0.05" width="64" align="middle" anchor="middle" family="微软雅黑" size="13px" weight="400"><tspan id="SvgjsTspan1548" x="149.5" dy="16"><tspan id="SvgjsTspan1549" style="text-decoration:;">《return》</tspan></tspan></text></g></g><g id="SvgjsG1550"><path id="SvgjsPath1551" fill="none" marker-end="url(&quot;#SvgjsMarker1552&quot;)" stroke="#323232" stroke-dasharray="8px, 5px" stroke-width="2" d="M 418.751 586 L 100.084 586" /></g><g id="SvgjsG1554"><path id="SvgjsPath1555" fill="none" marker-end="url(&quot;#SvgjsMarker1556&quot;)" stroke="#323232" stroke-width="2" d="M 99.5372 533.804 L 409.843 532.525" /></g><g id="SvgjsG1558" transform="translate(112.599 565.643)"><path id="SvgjsPath1559" fill="none" stroke="none" d="M 0 0 L 295.638 0 L 295.638 20 L 0 20 Z" /><g id="SvgjsG1560"><text id="SvgjsText1561" font-family="微软雅黑" font-size="13px" font-style="" font-weight="400" fill="#323232" text-anchor="middle" transform="rotate(0)" y="0.05" width="30" align="middle" anchor="middle" family="微软雅黑" size="13px" weight="400"><tspan id="SvgjsTspan1562" x="148" dy="16"><tspan id="SvgjsTspan1563" style="text-decoration:;">2:OK</tspan></tspan></text></g></g><g id="SvgjsG1564" transform="translate(409.751 532.321)"><path id="SvgjsPath1565" fill="#ffffff" fill-opacity="1" stroke="#323232" stroke-width="2" d="M 0 0 L 20 0 L 20 53.3214 L 0 53.3214 Z" /><g id="SvgjsG1566"><text id="SvgjsText1567" font-family="微软雅黑" font-size="13px" font-style="" font-weight="400" fill="#323232" text-anchor="middle" transform="rotate(0)" y="16.7107" width="0" align="middle" anchor="middle" family="微软雅黑" size="13px" weight="400"><tspan id="SvgjsTspan1568" x="10" dy="16"><tspan id="SvgjsTspan1569" style="text-decoration:;"> </tspan></tspan></text></g></g><g id="SvgjsG1570" transform="translate(112.599 631.527)"><path id="SvgjsPath1571" fill="none" stroke="none" d="M 0 0 L 303.197 0 L 303.197 19.2679 L 0 19.2679 Z" /><g id="SvgjsG1572"><text id="SvgjsText1573" font-family="微软雅黑" font-size="13px" font-style="" font-weight="400" fill="#323232" text-anchor="middle" transform="rotate(0)" y="-0.316" width="85" align="middle" anchor="middle" family="微软雅黑" size="13px" weight="400"><tspan id="SvgjsTspan1574" x="152" dy="16"><tspan id="SvgjsTspan1575" style="text-decoration:;">9:EndReport()</tspan></tspan></text></g></g><g id="SvgjsG1576" transform="translate(114.864 670.259)"><path id="SvgjsPath1577" fill="none" stroke="none" d="M 0 0 L 298.667 0 L 298.667 20 L 0 20 Z" /><g id="SvgjsG1578"><text id="SvgjsText1579" font-family="微软雅黑" font-size="13px" font-style="" font-weight="400" fill="#323232" text-anchor="middle" transform="rotate(0)" y="0.05" width="64" align="middle" anchor="middle" family="微软雅黑" size="13px" weight="400"><tspan id="SvgjsTspan1580" x="149.5" dy="16"><tspan id="SvgjsTspan1581" style="text-decoration:;">《return》</tspan></tspan></text></g></g><g id="SvgjsG1582"><path id="SvgjsPath1583" fill="none" marker-end="url(&quot;#SvgjsMarker1584&quot;)" stroke="#323232" stroke-dasharray="8px, 5px" stroke-width="2" d="M 418.751 704.473 L 100.084 704.473" /></g><g id="SvgjsG1586"><path id="SvgjsPath1587" fill="none" marker-end="url(&quot;#SvgjsMarker1588&quot;)" stroke="#323232" stroke-width="2" d="M 99.5372 652.277 L 409.843 650.998" /></g><g id="SvgjsG1590" transform="translate(112.599 684.116)"><path id="SvgjsPath1591" fill="none" stroke="none" d="M 0 0 L 295.638 0 L 295.638 20 L 0 20 Z" /><g id="SvgjsG1592"><text id="SvgjsText1593" font-family="微软雅黑" font-size="13px" font-style="" font-weight="400" fill="#323232" text-anchor="middle" transform="rotate(0)" y="0.05" width="84" align="middle" anchor="middle" family="微软雅黑" size="13px" weight="400"><tspan id="SvgjsTspan1594" x="148" dy="16"><tspan id="SvgjsTspan1595" style="text-decoration:;">10:EndReport</tspan></tspan></text></g></g><g id="SvgjsG1596" transform="translate(409.751 650.795)"><path id="SvgjsPath1597" fill="#ffffff" fill-opacity="1" stroke="#323232" stroke-width="2" d="M 0 0 L 20 0 L 20 53.3214 L 0 53.3214 Z" /><g id="SvgjsG1598"><text id="SvgjsText1599" font-family="微软雅黑" font-size="13px" font-style="" font-weight="400" fill="#323232" text-anchor="middle" transform="rotate(0)" y="16.7107" width="0" align="middle" anchor="middle" family="微软雅黑" size="13px" weight="400"><tspan id="SvgjsTspan1600" x="10" dy="16"><tspan id="SvgjsTspan1601" style="text-decoration:;"> </tspan></tspan></text></g></g><g id="SvgjsG1602" transform="translate(112.599 170.527)"><path id="SvgjsPath1603" fill="none" stroke="none" d="M 0 0 L 303.197 0 L 303.197 19.2679 L 0 19.2679 Z" /><g id="SvgjsG1604"><text id="SvgjsText1605" font-family="微软雅黑" font-size="13px" font-style="" font-weight="400" fill="#323232" text-anchor="middle" transform="rotate(0)" y="-0.316" width="178" align="middle" anchor="middle" family="微软雅黑" size="13px" weight="400"><tspan id="SvgjsTspan1606" x="152" dy="16"><tspan id="SvgjsTspan1607" style="text-decoration:;">3.Login(username,password)</tspan></tspan></text></g></g><g id="SvgjsG1608" transform="translate(114.864 209.259)"><path id="SvgjsPath1609" fill="none" stroke="none" d="M 0 0 L 298.667 0 L 298.667 20 L 0 20 Z" /><g id="SvgjsG1610"><text id="SvgjsText1611" font-family="微软雅黑" font-size="13px" font-style="" font-weight="400" fill="#323232" text-anchor="middle" transform="rotate(0)" y="0.05" width="64" align="middle" anchor="middle" family="微软雅黑" size="13px" weight="400"><tspan id="SvgjsTspan1612" x="149.5" dy="16"><tspan id="SvgjsTspan1613" style="text-decoration:;">《return》</tspan></tspan></text></g></g><g id="SvgjsG1614"><path id="SvgjsPath1615" fill="none" marker-end="url(&quot;#SvgjsMarker1616&quot;)" stroke="#323232" stroke-dasharray="8px, 5px" stroke-width="2" d="M 418.751 243.473 L 100.084 243.473" /></g><g id="SvgjsG1618"><path id="SvgjsPath1619" fill="none" marker-end="url(&quot;#SvgjsMarker1620&quot;)" stroke="#323232" stroke-width="2" d="M 99.5372 191.277 L 409.843 189.998" /></g><g id="SvgjsG1622" transform="translate(112.599 223.116)"><path id="SvgjsPath1623" fill="none" stroke="none" d="M 0 0 L 295.638 0 L 295.638 20 L 0 20 Z" /><g id="SvgjsG1624"><text id="SvgjsText1625" font-family="微软雅黑" font-size="13px" font-style="" font-weight="400" fill="#323232" text-anchor="middle" transform="rotate(0)" y="0.05" width="30" align="middle" anchor="middle" family="微软雅黑" size="13px" weight="400"><tspan id="SvgjsTspan1626" x="148" dy="16"><tspan id="SvgjsTspan1627" style="text-decoration:;">4.OK</tspan></tspan></text></g></g><g id="SvgjsG1628" transform="translate(409.751 189.795)"><path id="SvgjsPath1629" fill="#ffffff" fill-opacity="1" stroke="#323232" stroke-width="2" d="M 0 0 L 20 0 L 20 53.3214 L 0 53.3214 Z" /><g id="SvgjsG1630"><text id="SvgjsText1631" font-family="微软雅黑" font-size="13px" font-style="" font-weight="400" fill="#323232" text-anchor="middle" transform="rotate(0)" y="16.7107" width="0" align="middle" anchor="middle" family="微软雅黑" size="13px" weight="400"><tspan id="SvgjsTspan1632" x="10" dy="16"><tspan id="SvgjsTspan1633" style="text-decoration:;"> </tspan></tspan></text></g></g><g id="SvgjsG1634" transform="translate(112.599 76.5268)"><path id="SvgjsPath1635" fill="none" stroke="none" d="M 0 0 L 303.197 0 L 303.197 19.2679 L 0 19.2679 Z" /><g id="SvgjsG1636"><text id="SvgjsText1637" font-family="微软雅黑" font-size="13px" font-style="" font-weight="400" fill="#323232" text-anchor="middle" transform="rotate(0)" y="-0.316" width="143" align="middle" anchor="middle" family="微软雅黑" size="13px" weight="400"><tspan id="SvgjsTspan1638" x="152" dy="16"><tspan id="SvgjsTspan1639" style="text-decoration:;">1.OpenLoginInterface()</tspan></tspan></text></g></g><g id="SvgjsG1640" transform="translate(114.864 115.259)"><path id="SvgjsPath1641" fill="none" stroke="none" d="M 0 0 L 298.667 0 L 298.667 20 L 0 20 Z" /><g id="SvgjsG1642"><text id="SvgjsText1643" font-family="微软雅黑" font-size="13px" font-style="" font-weight="400" fill="#323232" text-anchor="middle" transform="rotate(0)" y="0.05" width="64" align="middle" anchor="middle" family="微软雅黑" size="13px" weight="400"><tspan id="SvgjsTspan1644" x="149.5" dy="16"><tspan id="SvgjsTspan1645" style="text-decoration:;">《return》</tspan></tspan></text></g></g><g id="SvgjsG1646"><path id="SvgjsPath1647" fill="none" marker-end="url(&quot;#SvgjsMarker1648&quot;)" stroke="#323232" stroke-dasharray="8px, 5px" stroke-width="2" d="M 418.751 149.473 L 100.084 149.473" /></g><g id="SvgjsG1650"><path id="SvgjsPath1651" fill="none" marker-end="url(&quot;#SvgjsMarker1652&quot;)" stroke="#323232" stroke-width="2" d="M 99.5372 97.2768 L 409.843 95.9982" /></g><g id="SvgjsG1654" transform="translate(112.599 129.116)"><path id="SvgjsPath1655" fill="none" stroke="none" d="M 0 0 L 295.638 0 L 295.638 20 L 0 20 Z" /><g id="SvgjsG1656"><text id="SvgjsText1657" font-family="微软雅黑" font-size="13px" font-style="" font-weight="400" fill="#323232" text-anchor="middle" transform="rotate(0)" y="0.05" width="30" align="middle" anchor="middle" family="微软雅黑" size="13px" weight="400"><tspan id="SvgjsTspan1658" x="148" dy="16"><tspan id="SvgjsTspan1659" style="text-decoration:;">2.OK</tspan></tspan></text></g></g><g id="SvgjsG1660" transform="translate(409.751 95.7946)"><path id="SvgjsPath1661" fill="#ffffff" fill-opacity="1" stroke="#323232" stroke-width="2" d="M 0 0 L 20 0 L 20 53.3214 L 0 53.3214 Z" /><g id="SvgjsG1662"><text id="SvgjsText1663" font-family="微软雅黑" font-size="13px" font-style="" font-weight="400" fill="#323232" text-anchor="middle" transform="rotate(0)" y="16.7107" width="0" align="middle" anchor="middle" family="微软雅黑" size="13px" weight="400"><tspan id="SvgjsTspan1664" x="10" dy="16"><tspan id="SvgjsTspan1665" style="text-decoration:;"> </tspan></tspan></text></g></g></svg>