<svg xmlns="http://www.w3.org/2000/svg" id="SvgjsSvg1666" width="533.74" height="759" version="1.1" xmlns:xlink="http://www.w3.org/1999/xlink" xmlns:svgjs="http://svgjs.com/svgjs"><defs id="SvgjsDefs1667"><marker id="SvgjsMarker1714" viewBox="0 0 16 12" refX="16" refY="6" markerUnits="userSpaceOnUse" markerWidth="16" markerHeight="12" orient="auto"><path id="SvgjsPath1715" fill="#323232" stroke="#323232" stroke-width="2" d="M 0 2 L 14 6 L 0 11 L 0 2" /></marker><marker id="SvgjsMarker1730" viewBox="0 0 16 12" refX="16" refY="6" markerUnits="userSpaceOnUse" markerWidth="16" markerHeight="12" orient="auto"><path id="SvgjsPath1731" fill="#323232" stroke="#323232" stroke-width="2" d="M 0 2 L 14 6 L 0 11 L 0 2" /></marker><marker id="SvgjsMarker1734" viewBox="0 0 16 12" refX="16" refY="6" markerUnits="userSpaceOnUse" markerWidth="16" markerHeight="12" orient="auto"><path id="SvgjsPath1735" fill="#323232" stroke="#323232" stroke-width="2" d="M 0 2 L 14 6 L 0 11 L 0 2" /></marker><marker id="SvgjsMarker1750" viewBox="0 0 16 12" refX="16" refY="6" markerUnits="userSpaceOnUse" markerWidth="16" markerHeight="12" orient="auto"><path id="SvgjsPath1751" fill="#323232" stroke="#323232" stroke-width="2" d="M 0 2 L 14 6 L 0 11 L 0 2" /></marker><marker id="SvgjsMarker1772" viewBox="0 0 16 12" refX="16" refY="6" markerUnits="userSpaceOnUse" markerWidth="16" markerHeight="12" orient="auto"><path id="SvgjsPath1773" fill="#323232" stroke="#323232" stroke-width="2" d="M 0 2 L 14 6 L 0 11 L 0 2" /></marker><marker id="SvgjsMarker1776" viewBox="0 0 16 12" refX="16" refY="6" markerUnits="userSpaceOnUse" markerWidth="16" markerHeight="12" orient="auto"><path id="SvgjsPath1777" fill="#323232" stroke="#323232" stroke-width="2" d="M 0 2 L 14 6 L 0 11 L 0 2" /></marker><marker id="SvgjsMarker1804" viewBox="0 0 16 12" refX="16" refY="6" markerUnits="userSpaceOnUse" markerWidth="16" markerHeight="12" orient="auto"><path id="SvgjsPath1805" fill="#323232" stroke="#323232" stroke-width="2" d="M 0 2 L 14 6 L 0 11 L 0 2" /></marker><marker id="SvgjsMarker1808" viewBox="0 0 16 12" refX="16" refY="6" markerUnits="userSpaceOnUse" markerWidth="16" markerHeight="12" orient="auto"><path id="SvgjsPath1809" fill="#323232" stroke="#323232" stroke-width="2" d="M 0 2 L 14 6 L 0 11 L 0 2" /></marker><marker id="SvgjsMarker1836" viewBox="0 0 16 12" refX="16" refY="6" markerUnits="userSpaceOnUse" markerWidth="16" markerHeight="12" orient="auto"><path id="SvgjsPath1837" fill="#323232" stroke="#323232" stroke-width="2" d="M 0 2 L 14 6 L 0 11 L 0 2" /></marker><marker id="SvgjsMarker1840" viewBox="0 0 16 12" refX="16" refY="6" markerUnits="userSpaceOnUse" markerWidth="16" markerHeight="12" orient="auto"><path id="SvgjsPath1841" fill="#323232" stroke="#323232" stroke-width="2" d="M 0 2 L 14 6 L 0 11 L 0 2" /></marker><marker id="SvgjsMarker1868" viewBox="0 0 16 12" refX="16" refY="6" markerUnits="userSpaceOnUse" markerWidth="16" markerHeight="12" orient="auto"><path id="SvgjsPath1869" fill="#323232" stroke="#323232" stroke-width="2" d="M 0 2 L 14 6 L 0 11 L 0 2" /></marker><marker id="SvgjsMarker1872" viewBox="0 0 16 12" refX="16" refY="6" markerUnits="userSpaceOnUse" markerWidth="16" markerHeight="12" orient="auto"><path id="SvgjsPath1873" fill="#323232" stroke="#323232" stroke-width="2" d="M 0 2 L 14 6 L 0 11 L 0 2" /></marker></defs><g id="SvgjsG1668" transform="translate(62.699 484)"><path id="SvgjsPath1669" fill="#ffffff" fill-opacity="1" stroke="#323232" stroke-width="2" d="M 0 4 Q 0 0 4 0 L 386.68 0 Q 390.68 0 390.68 4 L 390.68 109.964 Q 390.68 113.964 386.68 113.964 L 4 113.964 Q 0 113.964 0 109.964 Z" /><path id="SvgjsPath1670" fill="#ffffff" fill-opacity="1" stroke="#323232" stroke-width="2" d="M 0 25 L 117.204 25 L 125.204 17 L 125.204 0" /><path id="SvgjsPath1671" fill="none" stroke="none" d="M 0 0 L 390.68 0 L 390.68 113.964 L 0 113.964 Z" /><g id="SvgjsG1672"><text id="SvgjsText1673" font-family="微软雅黑" font-size="13px" font-style="" font-weight="400" fill="#323232" text-anchor="middle" transform="rotate(0)" y="59.5321" width="0" align="middle" anchor="middle" family="微软雅黑" size="13px" weight="400"><tspan id="SvgjsTspan1674" x="195.5" dy="16"><tspan id="SvgjsTspan1675" style="text-decoration:;"> </tspan></tspan></text></g><g id="SvgjsG1676"><text id="SvgjsText1677" font-family="微软雅黑" font-size="13px" font-style="" font-weight="400" fill="#323232" text-anchor="middle" transform="rotate(0)" y="2.55" width="26" align="middle" anchor="middle" family="微软雅黑" size="13px" weight="400"><tspan id="SvgjsTspan1678" x="64" dy="16"><tspan id="SvgjsTspan1679" style="text-decoration:;">可选</tspan></tspan></text></g></g><g id="SvgjsG1680" transform="translate(25 25)"><path id="SvgjsPath1681" fill="none" stroke="#323232" stroke-dasharray="3px, 4px" stroke-width="2" d="M 73 30 L 73 709" /><path id="SvgjsPath1682" fill="#ffffff" fill-opacity="1" stroke="#323232" stroke-width="2" d="M 0 0 L 146 0 L 146 30 L 0 30 Z" /><g id="SvgjsG1683"><text id="SvgjsText1684" font-family="微软雅黑" font-size="13px" font-style="" font-weight="400" fill="#323232" text-anchor="middle" transform="rotate(0)" y="5.05" width="52" align="middle" anchor="middle" family="微软雅黑" size="13px" weight="400"><tspan id="SvgjsTspan1685" x="73" dy="16"><tspan id="SvgjsTspan1686" style="text-decoration:;">酒店经理</tspan></tspan></text></g></g><g id="SvgjsG1687" transform="translate(330.744 31.5804)"><path id="SvgjsPath1688" fill="none" stroke="#323232" stroke-dasharray="3px, 4px" stroke-width="2" d="M 89.0065 30 L 89.0065 702.42" /><path id="SvgjsPath1689" fill="#ffffff" fill-opacity="1" stroke="#323232" stroke-width="2" d="M 0 0 L 178.013 0 L 178.013 30 L 0 30 Z" /><g id="SvgjsG1690"><text id="SvgjsText1691" font-family="微软雅黑" font-size="13px" font-style="" font-weight="400" fill="#323232" text-anchor="middle" transform="rotate(0)" y="5.05" width="91" align="middle" anchor="middle" family="微软雅黑" size="13px" weight="400"><tspan id="SvgjsTspan1692" x="89.5" dy="16"><tspan id="SvgjsTspan1693" style="text-decoration:;">分布式温控系统</tspan></tspan></text></g></g><g id="SvgjsG1694" transform="translate(108.819 261.339)"><path id="SvgjsPath1695" fill="none" stroke="none" d="M 0 0 L 303.197 0 L 303.197 51.3393 L 0 51.3393 Z" /><g id="SvgjsG1696"><text id="SvgjsText1697" font-family="微软雅黑" font-size="13px" font-style="" font-weight="400" fill="#323232" text-anchor="middle" transform="rotate(0)" y="15.7196" width="92" align="middle" anchor="middle" family="微软雅黑" size="13px" weight="400"><tspan id="SvgjsTspan1698" x="152" dy="16"><tspan id="SvgjsTspan1699" style="text-decoration:;">5:ViewReport()</tspan></tspan></text></g></g><g id="SvgjsG1700" transform="translate(108.819 334.286)"><path id="SvgjsPath1701" fill="none" stroke="none" d="M 0 0 L 303.197 0 L 303.197 25.5893 L 0 25.5893 Z" /><g id="SvgjsG1702"><text id="SvgjsText1703" font-family="微软雅黑" font-size="13px" font-style="" font-weight="400" fill="#323232" text-anchor="middle" transform="rotate(0)" y="2.8446" width="72" align="middle" anchor="middle" family="微软雅黑" size="13px" weight="400"><tspan id="SvgjsTspan1704" x="152" dy="16"><tspan id="SvgjsTspan1705" style="text-decoration:;">6:ReportNo</tspan></tspan></text></g></g><g id="SvgjsG1706" transform="translate(115.879 320)"><path id="SvgjsPath1707" fill="none" stroke="none" d="M 0 0 L 296.638 0 L 296.638 22 L 0 22 Z" /><g id="SvgjsG1708"><text id="SvgjsText1709" font-family="微软雅黑" font-size="13px" font-style="" font-weight="400" fill="#323232" text-anchor="middle" transform="rotate(0)" y="1.05" width="64" align="middle" anchor="middle" family="微软雅黑" size="13px" weight="400"><tspan id="SvgjsTspan1710" x="148.5" dy="16"><tspan id="SvgjsTspan1711" style="text-decoration:;">《return》</tspan></tspan></text></g></g><g id="SvgjsG1712"><path id="SvgjsPath1713" fill="none" marker-end="url(&quot;#SvgjsMarker1714&quot;)" stroke="#323232" stroke-dasharray="8px, 5px" stroke-width="2" d="M 407.751 357.821 L 103.379 357.821" /></g><g id="SvgjsG1716" transform="translate(112.599 388.411)"><path id="SvgjsPath1717" fill="none" stroke="none" d="M 0 0 L 303.197 0 L 303.197 19.2679 L 0 19.2679 Z" /><g id="SvgjsG1718"><text id="SvgjsText1719" font-family="微软雅黑" font-size="13px" font-style="" font-weight="400" fill="#323232" text-anchor="middle" transform="rotate(0)" y="-0.316" width="196" align="middle" anchor="middle" family="微软雅黑" size="13px" weight="400"><tspan id="SvgjsTspan1720" x="152" dy="16"><tspan id="SvgjsTspan1721" style="text-decoration:;">7:SetReportOption(type,period)</tspan></tspan></text></g></g><g id="SvgjsG1722" transform="translate(114.864 427.143)"><path id="SvgjsPath1723" fill="none" stroke="none" d="M 0 0 L 298.667 0 L 298.667 20 L 0 20 Z" /><g id="SvgjsG1724"><text id="SvgjsText1725" font-family="微软雅黑" font-size="13px" font-style="" font-weight="400" fill="#323232" text-anchor="middle" transform="rotate(0)" y="0.05" width="64" align="middle" anchor="middle" family="微软雅黑" size="13px" weight="400"><tspan id="SvgjsTspan1726" x="149.5" dy="16"><tspan id="SvgjsTspan1727" style="text-decoration:;">《return》</tspan></tspan></text></g></g><g id="SvgjsG1728"><path id="SvgjsPath1729" fill="none" marker-end="url(&quot;#SvgjsMarker1730&quot;)" stroke="#323232" stroke-dasharray="8px, 5px" stroke-width="2" d="M 418.751 461.357 L 100.084 461.357" /></g><g id="SvgjsG1732"><path id="SvgjsPath1733" fill="none" marker-end="url(&quot;#SvgjsMarker1734&quot;)" stroke="#323232" stroke-width="2" d="M 99.5372 409.161 L 409.843 407.882" /></g><g id="SvgjsG1736" transform="translate(112.599 441)"><path id="SvgjsPath1737" fill="none" stroke="none" d="M 0 0 L 295.638 0 L 295.638 20 L 0 20 Z" /><g id="SvgjsG1738"><text id="SvgjsText1739" font-family="微软雅黑" font-size="13px" font-style="" font-weight="400" fill="#323232" text-anchor="middle" transform="rotate(0)" y="0.05" width="168" align="middle" anchor="middle" family="微软雅黑" size="13px" weight="400"><tspan id="SvgjsTspan1740" x="148" dy="16"><tspan id="SvgjsTspan1741" style="text-decoration:;">8:DisplayReport(ReportNo)</tspan></tspan></text></g></g><g id="SvgjsG1742" transform="translate(409.751 295.679)"><path id="SvgjsPath1743" fill="#ffffff" fill-opacity="1" stroke="#323232" stroke-width="2" d="M 0 0 L 20 0 L 20 61.3214 L 0 61.3214 Z" /><g id="SvgjsG1744"><text id="SvgjsText1745" font-family="微软雅黑" font-size="13px" font-style="" font-weight="400" fill="#323232" text-anchor="middle" transform="rotate(0)" y="20.7107" width="0" align="middle" anchor="middle" family="微软雅黑" size="13px" weight="400"><tspan id="SvgjsTspan1746" x="10" dy="16"><tspan id="SvgjsTspan1747" style="text-decoration:;"> </tspan></tspan></text></g></g><g id="SvgjsG1748"><path id="SvgjsPath1749" fill="none" marker-end="url(&quot;#SvgjsMarker1750&quot;)" stroke="#323232" stroke-width="2" d="M 97.9903 297.732 L 410.328 295.876" /></g><g id="SvgjsG1752" transform="translate(409.751 407.679)"><path id="SvgjsPath1753" fill="#ffffff" fill-opacity="1" stroke="#323232" stroke-width="2" d="M 0 0 L 20 0 L 20 53.3214 L 0 53.3214 Z" /><g id="SvgjsG1754"><text id="SvgjsText1755" font-family="微软雅黑" font-size="13px" font-style="" font-weight="400" fill="#323232" text-anchor="middle" transform="rotate(0)" y="16.7107" width="0" align="middle" anchor="middle" family="微软雅黑" size="13px" weight="400"><tspan id="SvgjsTspan1756" x="10" dy="16"><tspan id="SvgjsTspan1757" style="text-decoration:;"> </tspan></tspan></text></g></g><g id="SvgjsG1758" transform="translate(112.599 513.054)"><path id="SvgjsPath1759" fill="none" stroke="none" d="M 0 0 L 303.197 0 L 303.197 19.2679 L 0 19.2679 Z" /><g id="SvgjsG1760"><text id="SvgjsText1761" font-family="微软雅黑" font-size="13px" font-style="" font-weight="400" fill="#323232" text-anchor="middle" transform="rotate(0)" y="-0.316" width="152" align="middle" anchor="middle" family="微软雅黑" size="13px" weight="400"><tspan id="SvgjsTspan1762" x="152" dy="16"><tspan id="SvgjsTspan1763" style="text-decoration:;">1:PrintReport(ReportNo)</tspan></tspan></text></g></g><g id="SvgjsG1764" transform="translate(114.864 551.786)"><path id="SvgjsPath1765" fill="none" stroke="none" d="M 0 0 L 298.667 0 L 298.667 20 L 0 20 Z" /><g id="SvgjsG1766"><text id="SvgjsText1767" font-family="微软雅黑" font-size="13px" font-style="" font-weight="400" fill="#323232" text-anchor="middle" transform="rotate(0)" y="0.05" width="64" align="middle" anchor="middle" family="微软雅黑" size="13px" weight="400"><tspan id="SvgjsTspan1768" x="149.5" dy="16"><tspan id="SvgjsTspan1769" style="text-decoration:;">《return》</tspan></tspan></text></g></g><g id="SvgjsG1770"><path id="SvgjsPath1771" fill="none" marker-end="url(&quot;#SvgjsMarker1772&quot;)" stroke="#323232" stroke-dasharray="8px, 5px" stroke-width="2" d="M 418.751 586 L 100.084 586" /></g><g id="SvgjsG1774"><path id="SvgjsPath1775" fill="none" marker-end="url(&quot;#SvgjsMarker1776&quot;)" stroke="#323232" stroke-width="2" d="M 99.5372 533.804 L 409.843 532.525" /></g><g id="SvgjsG1778" transform="translate(112.599 565.643)"><path id="SvgjsPath1779" fill="none" stroke="none" d="M 0 0 L 295.638 0 L 295.638 20 L 0 20 Z" /><g id="SvgjsG1780"><text id="SvgjsText1781" font-family="微软雅黑" font-size="13px" font-style="" font-weight="400" fill="#323232" text-anchor="middle" transform="rotate(0)" y="0.05" width="30" align="middle" anchor="middle" family="微软雅黑" size="13px" weight="400"><tspan id="SvgjsTspan1782" x="148" dy="16"><tspan id="SvgjsTspan1783" style="text-decoration:;">2:OK</tspan></tspan></text></g></g><g id="SvgjsG1784" transform="translate(409.751 532.321)"><path id="SvgjsPath1785" fill="#ffffff" fill-opacity="1" stroke="#323232" stroke-width="2" d="M 0 0 L 20 0 L 20 53.3214 L 0 53.3214 Z" /><g id="SvgjsG1786"><text id="SvgjsText1787" font-family="微软雅黑" font-size="13px" font-style="" font-weight="400" fill="#323232" text-anchor="middle" transform="rotate(0)" y="16.7107" width="0" align="middle" anchor="middle" family="微软雅黑" size="13px" weight="400"><tspan id="SvgjsTspan1788" x="10" dy="16"><tspan id="SvgjsTspan1789" style="text-decoration:;"> </tspan></tspan></text></g></g><g id="SvgjsG1790" transform="translate(112.599 631.527)"><path id="SvgjsPath1791" fill="none" stroke="none" d="M 0 0 L 303.197 0 L 303.197 19.2679 L 0 19.2679 Z" /><g id="SvgjsG1792"><text id="SvgjsText1793" font-family="微软雅黑" font-size="13px" font-style="" font-weight="400" fill="#323232" text-anchor="middle" transform="rotate(0)" y="-0.316" width="85" align="middle" anchor="middle" family="微软雅黑" size="13px" weight="400"><tspan id="SvgjsTspan1794" x="152" dy="16"><tspan id="SvgjsTspan1795" style="text-decoration:;">9:EndReport()</tspan></tspan></text></g></g><g id="SvgjsG1796" transform="translate(114.864 670.259)"><path id="SvgjsPath1797" fill="none" stroke="none" d="M 0 0 L 298.667 0 L 298.667 20 L 0 20 Z" /><g id="SvgjsG1798"><text id="SvgjsText1799" font-family="微软雅黑" font-size="13px" font-style="" font-weight="400" fill="#323232" text-anchor="middle" transform="rotate(0)" y="0.05" width="64" align="middle" anchor="middle" family="微软雅黑" size="13px" weight="400"><tspan id="SvgjsTspan1800" x="149.5" dy="16"><tspan id="SvgjsTspan1801" style="text-decoration:;">《return》</tspan></tspan></text></g></g><g id="SvgjsG1802"><path id="SvgjsPath1803" fill="none" marker-end="url(&quot;#SvgjsMarker1804&quot;)" stroke="#323232" stroke-dasharray="8px, 5px" stroke-width="2" d="M 418.751 704.473 L 100.084 704.473" /></g><g id="SvgjsG1806"><path id="SvgjsPath1807" fill="none" marker-end="url(&quot;#SvgjsMarker1808&quot;)" stroke="#323232" stroke-width="2" d="M 99.5372 652.277 L 409.843 650.998" /></g><g id="SvgjsG1810" transform="translate(112.599 684.116)"><path id="SvgjsPath1811" fill="none" stroke="none" d="M 0 0 L 295.638 0 L 295.638 20 L 0 20 Z" /><g id="SvgjsG1812"><text id="SvgjsText1813" font-family="微软雅黑" font-size="13px" font-style="" font-weight="400" fill="#323232" text-anchor="middle" transform="rotate(0)" y="0.05" width="84" align="middle" anchor="middle" family="微软雅黑" size="13px" weight="400"><tspan id="SvgjsTspan1814" x="148" dy="16"><tspan id="SvgjsTspan1815" style="text-decoration:;">10:EndReport</tspan></tspan></text></g></g><g id="SvgjsG1816" transform="translate(409.751 650.795)"><path id="SvgjsPath1817" fill="#ffffff" fill-opacity="1" stroke="#323232" stroke-width="2" d="M 0 0 L 20 0 L 20 53.3214 L 0 53.3214 Z" /><g id="SvgjsG1818"><text id="SvgjsText1819" font-family="微软雅黑" font-size="13px" font-style="" font-weight="400" fill="#323232" text-anchor="middle" transform="rotate(0)" y="16.7107" width="0" align="middle" anchor="middle" family="微软雅黑" size="13px" weight="400"><tspan id="SvgjsTspan1820" x="10" dy="16"><tspan id="SvgjsTspan1821" style="text-decoration:;"> </tspan></tspan></text></g></g><g id="SvgjsG1822" transform="translate(112.599 170.527)"><path id="SvgjsPath1823" fill="none" stroke="none" d="M 0 0 L 303.197 0 L 303.197 19.2679 L 0 19.2679 Z" /><g id="SvgjsG1824"><text id="SvgjsText1825" font-family="微软雅黑" font-size="13px" font-style="" font-weight="400" fill="#323232" text-anchor="middle" transform="rotate(0)" y="-0.316" width="178" align="middle" anchor="middle" family="微软雅黑" size="13px" weight="400"><tspan id="SvgjsTspan1826" x="152" dy="16"><tspan id="SvgjsTspan1827" style="text-decoration:;">3.Login(username,password)</tspan></tspan></text></g></g><g id="SvgjsG1828" transform="translate(114.864 209.259)"><path id="SvgjsPath1829" fill="none" stroke="none" d="M 0 0 L 298.667 0 L 298.667 20 L 0 20 Z" /><g id="SvgjsG1830"><text id="SvgjsText1831" font-family="微软雅黑" font-size="13px" font-style="" font-weight="400" fill="#323232" text-anchor="middle" transform="rotate(0)" y="0.05" width="64" align="middle" anchor="middle" family="微软雅黑" size="13px" weight="400"><tspan id="SvgjsTspan1832" x="149.5" dy="16"><tspan id="SvgjsTspan1833" style="text-decoration:;">《return》</tspan></tspan></text></g></g><g id="SvgjsG1834"><path id="SvgjsPath1835" fill="none" marker-end="url(&quot;#SvgjsMarker1836&quot;)" stroke="#323232" stroke-dasharray="8px, 5px" stroke-width="2" d="M 418.751 243.473 L 100.084 243.473" /></g><g id="SvgjsG1838"><path id="SvgjsPath1839" fill="none" marker-end="url(&quot;#SvgjsMarker1840&quot;)" stroke="#323232" stroke-width="2" d="M 99.5372 191.277 L 409.843 189.998" /></g><g id="SvgjsG1842" transform="translate(112.599 223.116)"><path id="SvgjsPath1843" fill="none" stroke="none" d="M 0 0 L 295.638 0 L 295.638 20 L 0 20 Z" /><g id="SvgjsG1844"><text id="SvgjsText1845" font-family="微软雅黑" font-size="13px" font-style="" font-weight="400" fill="#323232" text-anchor="middle" transform="rotate(0)" y="0.05" width="30" align="middle" anchor="middle" family="微软雅黑" size="13px" weight="400"><tspan id="SvgjsTspan1846" x="148" dy="16"><tspan id="SvgjsTspan1847" style="text-decoration:;">4.OK</tspan></tspan></text></g></g><g id="SvgjsG1848" transform="translate(409.751 189.795)"><path id="SvgjsPath1849" fill="#ffffff" fill-opacity="1" stroke="#323232" stroke-width="2" d="M 0 0 L 20 0 L 20 53.3214 L 0 53.3214 Z" /><g id="SvgjsG1850"><text id="SvgjsText1851" font-family="微软雅黑" font-size="13px" font-style="" font-weight="400" fill="#323232" text-anchor="middle" transform="rotate(0)" y="16.7107" width="0" align="middle" anchor="middle" family="微软雅黑" size="13px" weight="400"><tspan id="SvgjsTspan1852" x="10" dy="16"><tspan id="SvgjsTspan1853" style="text-decoration:;"> </tspan></tspan></text></g></g><g id="SvgjsG1854" transform="translate(112.599 76.5268)"><path id="SvgjsPath1855" fill="none" stroke="none" d="M 0 0 L 303.197 0 L 303.197 19.2679 L 0 19.2679 Z" /><g id="SvgjsG1856"><text id="SvgjsText1857" font-family="微软雅黑" font-size="13px" font-style="" font-weight="400" fill="#323232" text-anchor="middle" transform="rotate(0)" y="-0.316" width="143" align="middle" anchor="middle" family="微软雅黑" size="13px" weight="400"><tspan id="SvgjsTspan1858" x="152" dy="16"><tspan id="SvgjsTspan1859" style="text-decoration:;">1.OpenLoginInterface()</tspan></tspan></text></g></g><g id="SvgjsG1860" transform="translate(114.864 115.259)"><path id="SvgjsPath1861" fill="none" stroke="none" d="M 0 0 L 298.667 0 L 298.667 20 L 0 20 Z" /><g id="SvgjsG1862"><text id="SvgjsText1863" font-family="微软雅黑" font-size="13px" font-style="" font-weight="400" fill="#323232" text-anchor="middle" transform="rotate(0)" y="0.05" width="64" align="middle" anchor="middle" family="微软雅黑" size="13px" weight="400"><tspan id="SvgjsTspan1864" x="149.5" dy="16"><tspan id="SvgjsTspan1865" style="text-decoration:;">《return》</tspan></tspan></text></g></g><g id="SvgjsG1866"><path id="SvgjsPath1867" fill="none" marker-end="url(&quot;#SvgjsMarker1868&quot;)" stroke="#323232" stroke-dasharray="8px, 5px" stroke-width="2" d="M 418.751 149.473 L 100.084 149.473" /></g><g id="SvgjsG1870"><path id="SvgjsPath1871" fill="none" marker-end="url(&quot;#SvgjsMarker1872&quot;)" stroke="#323232" stroke-width="2" d="M 99.5372 97.2768 L 409.843 95.9982" /></g><g id="SvgjsG1874" transform="translate(112.599 129.116)"><path id="SvgjsPath1875" fill="none" stroke="none" d="M 0 0 L 295.638 0 L 295.638 20 L 0 20 Z" /><g id="SvgjsG1876"><text id="SvgjsText1877" font-family="微软雅黑" font-size="13px" font-style="" font-weight="400" fill="#323232" text-anchor="middle" transform="rotate(0)" y="0.05" width="30" align="middle" anchor="middle" family="微软雅黑" size="13px" weight="400"><tspan id="SvgjsTspan1878" x="148" dy="16"><tspan id="SvgjsTspan1879" style="text-decoration:;">2.OK</tspan></tspan></text></g></g><g id="SvgjsG1880" transform="translate(409.751 95.7946)"><path id="SvgjsPath1881" fill="#ffffff" fill-opacity="1" stroke="#323232" stroke-width="2" d="M 0 0 L 20 0 L 20 53.3214 L 0 53.3214 Z" /><g id="SvgjsG1882"><text id="SvgjsText1883" font-family="微软雅黑" font-size="13px" font-style="" font-weight="400" fill="#323232" text-anchor="middle" transform="rotate(0)" y="16.7107" width="0" align="middle" anchor="middle" family="微软雅黑" size="13px" weight="400"><tspan id="SvgjsTspan1884" x="10" dy="16"><tspan id="SvgjsTspan1885" style="text-decoration:;"> </tspan></tspan></text></g></g></svg>