<svg xmlns="http://www.w3.org/2000/svg" id="SvgjsSvg1006" width="609" height="455" version="1.1" xmlns:xlink="http://www.w3.org/1999/xlink" xmlns:svgjs="http://svgjs.com/svgjs"><defs id="SvgjsDefs1007"><marker id="SvgjsMarker1049" viewBox="0 0 16 12" refX="16" refY="6" markerUnits="userSpaceOnUse" markerWidth="16" markerHeight="12" orient="auto"><path id="SvgjsPath1050" fill="#323232" stroke="#323232" stroke-width="2" d="M 0 2 L 14 6 L 0 11 L 0 2" /></marker><marker id="SvgjsMarker1053" viewBox="0 0 16 12" refX="16" refY="6" markerUnits="userSpaceOnUse" markerWidth="16" markerHeight="12" orient="auto"><path id="SvgjsPath1054" fill="#323232" stroke="#323232" stroke-width="2" d="M 0 2 L 14 6 L 0 11 L 0 2" /></marker><marker id="SvgjsMarker1057" viewBox="0 0 16 12" refX="0" refY="6" markerUnits="userSpaceOnUse" markerWidth="16" markerHeight="12" orient="auto"><path id="SvgjsPath1058" fill="#323232" stroke="#323232" stroke-width="2" d="M 15 1.5 L 2 6 L 15 10.5" /></marker></defs><g id="SvgjsG1008" transform="translate(25 177.5)"><path id="SvgjsPath1009" fill="#ffffff" fill-opacity="1" stroke="#323232" stroke-width="2" d="M 23.3333 12.5 C 23.3333 -4.16667 46.6667 -4.16667 46.6667 12.5 C 46.6667 29.1667 23.3333 29.1667 23.3333 12.5 M 35 25 L 35 75 M 35 75 L 5.83333 100 M 35 75 L 64.1667 100 M 0 50 L 70 50" /><path id="SvgjsPath1010" fill="none" stroke="none" d="M 0 0 L 70 0 L 70 100 L 0 100 Z" /><g id="SvgjsG1011"><text id="SvgjsText1012" font-family="微软雅黑" font-size="13px" font-style="" font-weight="400" fill="#323232" text-anchor="middle" transform="rotate(0)" y="105.05" width="52" align="middle" anchor="middle" family="微软雅黑" size="13px" weight="400"><tspan id="SvgjsTspan1013" x="35" dy="16"><tspan id="SvgjsTspan1014" style="text-decoration:;">酒店经理</tspan></tspan></text></g></g><g id="SvgjsG1015" transform="translate(164 25)"><path id="SvgjsPath1016" fill="#ffffff" fill-opacity="1" stroke="#323232" stroke-width="2" d="M 0 4 Q 0 0 4 0 L 416 0 Q 420 0 420 4 L 420 401 Q 420 405 416 405 L 4 405 Q 0 405 0 401 Z" /><g id="SvgjsG1017"><text id="SvgjsText1018" font-family="微软雅黑" font-size="13px" font-style="" font-weight="400" fill="#323232" text-anchor="middle" transform="rotate(0)" y="19.9786" width="0" align="middle" anchor="middle" family="微软雅黑" size="13px" weight="400"><tspan id="SvgjsTspan1019" x="210" dy="16"><tspan id="SvgjsTspan1020" style="text-decoration:;"> </tspan></tspan></text></g></g><g id="SvgjsG1021" transform="translate(225 192.5)"><path id="SvgjsPath1022" fill="#ffffff" fill-opacity="1" stroke="#323232" stroke-width="2" d="M 0 35 C 0 -11.6667 100 -11.6667 100 35 C 100 81.6667 0 81.6667 0 35 Z" /><g id="SvgjsG1023"><text id="SvgjsText1024" font-family="微软雅黑" font-size="13px" font-style="" font-weight="400" fill="#323232" text-anchor="middle" transform="rotate(0)" y="25.05" width="52" align="middle" anchor="middle" family="微软雅黑" size="13px" weight="400"><tspan id="SvgjsTspan1025" x="50" dy="16"><tspan id="SvgjsTspan1026" style="text-decoration:;">查看报表</tspan></tspan></text></g></g><g id="SvgjsG1027" transform="translate(407 63.5)"><path id="SvgjsPath1028" fill="#ffffff" fill-opacity="1" stroke="#323232" stroke-width="2" d="M 0 35 C 0 -11.6667 100 -11.6667 100 35 C 100 81.6667 0 81.6667 0 35 Z" /><g id="SvgjsG1029"><text id="SvgjsText1030" font-family="微软雅黑" font-size="13px" font-style="" font-weight="400" fill="#323232" text-anchor="middle" transform="rotate(0)" y="25.05" width="52" align="middle" anchor="middle" family="微软雅黑" size="13px" weight="400"><tspan id="SvgjsTspan1031" x="50" dy="16"><tspan id="SvgjsTspan1032" style="text-decoration:;">登录系统</tspan></tspan></text></g></g><g id="SvgjsG1033" transform="translate(407 192.5)"><path id="SvgjsPath1034" fill="#ffffff" fill-opacity="1" stroke="#323232" stroke-width="2" d="M 0 35 C 0 -11.6667 100 -11.6667 100 35 C 100 81.6667 0 81.6667 0 35 Z" /><g id="SvgjsG1035"><text id="SvgjsText1036" font-family="微软雅黑" font-size="13px" font-style="" font-weight="400" fill="#323232" text-anchor="middle" transform="rotate(0)" y="25.05" width="52" align="middle" anchor="middle" family="微软雅黑" size="13px" weight="400"><tspan id="SvgjsTspan1037" x="50" dy="16"><tspan id="SvgjsTspan1038" style="text-decoration:;">生成报表</tspan></tspan></text></g></g><g id="SvgjsG1039" transform="translate(407 330.5)"><path id="SvgjsPath1040" fill="#ffffff" fill-opacity="1" stroke="#323232" stroke-width="2" d="M 0 35 C 0 -11.6667 100 -11.6667 100 35 C 100 81.6667 0 81.6667 0 35 Z" /><g id="SvgjsG1041"><text id="SvgjsText1042" font-family="微软雅黑" font-size="13px" font-style="" font-weight="400" fill="#323232" text-anchor="middle" transform="rotate(0)" y="25.05" width="52" align="middle" anchor="middle" family="微软雅黑" size="13px" weight="400"><tspan id="SvgjsTspan1043" x="50" dy="16"><tspan id="SvgjsTspan1044" style="text-decoration:;">打印报表</tspan></tspan></text></g></g><g id="SvgjsG1045"><path id="SvgjsPath1046" fill="none" stroke="#323232" stroke-width="2" d="M 95 227.5 L 160 227.5 L 160 227.5 L 225 227.5" /></g><g id="SvgjsG1047"><path id="SvgjsPath1048" fill="none" marker-end="url(&quot;#SvgjsMarker1049&quot;)" stroke="#323232" stroke-dasharray="8px, 5px" stroke-width="2" d="M 309.714 202.032 L 407 98.5" /></g><g id="SvgjsG1051"><path id="SvgjsPath1052" fill="none" marker-end="url(&quot;#SvgjsMarker1053&quot;)" stroke="#323232" stroke-dasharray="8px, 5px" stroke-width="2" d="M 325 227.5 L 366 227.5 L 366 227.5 L 407 227.5" /></g><g id="SvgjsG1055"><path id="SvgjsPath1056" fill="none" marker-start="url(&quot;#SvgjsMarker1057&quot;)" stroke="#323232" stroke-dasharray="8px, 5px" stroke-width="2" d="M 311.853 251.862 L 407 365.5" /></g><g id="SvgjsG1059" transform="translate(318 118.5)"><path id="SvgjsPath1060" fill="none" stroke="none" d="M 0 0 L 57 0 L 57 29 L 0 29 Z" /><g id="SvgjsG1061"><text id="SvgjsText1062" font-family="微软雅黑" font-size="13px" font-style="" font-weight="400" fill="#323232" text-anchor="middle" transform="rotate(0)" y="4.55" width="52" align="middle" anchor="middle" family="微软雅黑" size="13px" weight="400"><tspan id="SvgjsTspan1063" x="28.5" dy="16"><tspan id="SvgjsTspan1064" style="text-decoration:;">《包含》</tspan></tspan></text></g></g><g id="SvgjsG1065" transform="translate(318 201.5)"><path id="SvgjsPath1066" fill="none" stroke="none" d="M 0 0 L 57 0 L 57 29 L 0 29 Z" /><g id="SvgjsG1067"><text id="SvgjsText1068" font-family="微软雅黑" font-size="13px" font-style="" font-weight="400" fill="#323232" text-anchor="middle" transform="rotate(0)" y="4.55" width="52" align="middle" anchor="middle" family="微软雅黑" size="13px" weight="400"><tspan id="SvgjsTspan1069" x="28.5" dy="16"><tspan id="SvgjsTspan1070" style="text-decoration:;">《包含》</tspan></tspan></text></g></g><g id="SvgjsG1071" transform="translate(318 312.5)"><path id="SvgjsPath1072" fill="none" stroke="none" d="M 0 0 L 57 0 L 57 29 L 0 29 Z" /><g id="SvgjsG1073"><text id="SvgjsText1074" font-family="微软雅黑" font-size="13px" font-style="" font-weight="400" fill="#323232" text-anchor="middle" transform="rotate(0)" y="4.55" width="52" align="middle" anchor="middle" family="微软雅黑" size="13px" weight="400"><tspan id="SvgjsTspan1075" x="28.5" dy="16"><tspan id="SvgjsTspan1076" style="text-decoration:;">《扩展》</tspan></tspan></text></g></g></svg>